<svg width="243" height="253" viewBox="0 0 243 253" fill="none" xmlns="http://www.w3.org/2000/svg">
<path d="M39.0845 244.64L134.596 18.6846L230.106 244.64H39.0845Z" fill="#FAAC64" stroke="#FFD99F" stroke-width="10"/>
<path d="M242.825 130.523L6.36991 228.207L158.618 130.523L0 37.8047L242.825 130.523Z" fill="#C95959"/>
<path d="M197.019 130.437L37.5151 191.909L140.261 130.545L33.467 72.6914L197.019 130.437Z" fill="#843434"/>
<path d="M179.878 130.007C180.081 131.629 179.685 133.274 178.759 134.663C177.832 136.052 176.431 137.098 174.796 137.624C173.16 138.151 171.39 138.124 169.788 137.548C168.186 136.972 166.85 135.884 166.009 134.468C165.167 133.052 164.872 131.396 165.174 129.783C165.476 128.17 166.355 126.698 167.662 125.62C168.97 124.541 170.625 123.922 172.345 123.868C174.064 123.814 175.743 124.328 177.095 125.323L172.494 130.932L179.878 130.007Z" fill="black"/>
</svg>
